M48
; DRILL file {KiCad (6.0.2)} date Fri Jan 13 18:59:11 2023
; FORMAT={-:-/ absolute / inch / decimal}
; #@! TF.CreationDate,2023-01-13T18:59:11-08:00
; #@! TF.GenerationSoftware,Kicad,Pcbnew,(6.0.2)
; #@! TF.FileFunction,Plated,1,4,PTH
FMAT,2
INCH
; #@! TA.AperFunction,Plated,PTH,ViaDrill
T1C0.0079
; #@! TA.AperFunction,Plated,PTH,ComponentDrill
T2C0.0138
; #@! TA.AperFunction,Plated,PTH,ViaDrill
T3C0.0157
; #@! TA.AperFunction,Plated,PTH,ComponentDrill
T4C0.0197
; #@! TA.AperFunction,Plated,PTH,ComponentDrill
T5C0.0236
; #@! TA.AperFunction,Plated,PTH,ComponentDrill
T6C0.0335
; #@! TA.AperFunction,Plated,PTH,ComponentDrill
T7C0.0374
; #@! TA.AperFunction,Plated,PTH,ComponentDrill
T8C0.0433
; #@! TA.AperFunction,Plated,PTH,ComponentDrill
T9C0.0510
; #@! TA.AperFunction,Plated,PTH,ComponentDrill
T10C0.0669
; #@! TA.AperFunction,Plated,PTH,ComponentDrill
T11C0.0941
; #@! TA.AperFunction,Plated,PTH,ComponentDrill
T12C0.1260
; #@! TA.AperFunction,Plated,PTH,ComponentDrill
T13C0.1358
%
G90
G05
T1
X5.4606Y-5.2657
X5.72Y-5.72
X5.75Y-5.75
X5.77Y-5.58
X5.7815Y-5.0886
X5.79Y-5.74
X5.845Y-5.595
X5.874Y-5.4203
X5.8976Y-5.2657
X5.9Y-5.34
X5.91Y-5.42
X5.937Y-5.413
X5.945Y-5.615
X6.0089Y-5.6053
X6.0285Y-4.9843
X6.0285Y-5.248
X6.03Y-5.29
X6.03Y-5.43
X6.03Y-5.52
X6.0315Y-5.7175
X6.0413Y-5.4813
X6.05Y-5.32
X6.0817Y-5.6467
X6.0817Y-5.6949
X6.12Y-5.5
X6.1309Y-5.6585
X6.1358Y-5.3799
X6.1594Y-5.498
X6.1799Y-5.3118
X6.18Y-5.05
X6.5118Y-5.7087
X6.7094Y-4.7921
X6.7362Y-4.8256
X6.7744Y-4.8559
X6.8059Y-4.8854
X6.85Y-3.02
X6.8669Y-4.9165
X6.9409Y-2.8878
X6.9606Y-2.9154
X6.9803Y-2.9469
X7.0059Y-2.9764
T2
X5.8947Y-5.4616
X5.8947Y-5.5118
X5.8947Y-5.562
X5.9449Y-5.4616
X5.9449Y-5.5118
X5.9449Y-5.562
X5.9951Y-5.4616
X5.9951Y-5.5118
X5.9951Y-5.562
T3
X4.33Y-3.91
X4.57Y-5.2
X4.7146Y-5.5016
X4.9815Y-4.9638
X5.05Y-5.04
X5.12Y-3.28
X5.1602Y-3.3271
X5.2067Y-3.0689
X5.2461Y-3.2165
X5.2559Y-3.0984
X5.26Y-3.36
X5.28Y-4.3
X5.315Y-3.1181
X5.3248Y-3.0197
X5.4Y-3.1586
X5.4272Y-5.7008
X5.4331Y-3.1968
X5.45Y-4.31
X5.4754Y-5.6949
X5.4764Y-5.4596
X5.5236Y-5.4183
X5.5266Y-5.6939
X5.5512Y-3.0689
X5.5512Y-3.3838
X5.6398Y-5.3356
X5.6687Y-4.9213
X5.73Y-3.25
X5.748Y-5.4291
X5.91Y-3.32
X5.9418Y-3.4745
X5.9995Y-4.065
X6.0433Y-4.3898
X6.1Y-3.57
X6.13Y-5.33
X6.1824Y-3.4076
X6.1828Y-3.2308
X6.1854Y-3.4846
X6.2513Y-3.2187
X6.2638Y-3.4587
X6.2998Y-4.065
X6.34Y-5.28
X6.3492Y-5.5382
X6.3583Y-4.6609
X6.39Y-3.16
X6.5953Y-5.5079
X6.6Y-4.96
X7.11Y-3.39
X7.3138Y-3.1024
X7.3236Y-3.3484
X7.3335Y-3.4764
X7.4272Y-3.3828
X7.49Y-4.45
X7.5205Y-2.9547
X7.55Y-3.3189
T4
X4.9454Y-2.7464
X4.9454Y-2.7964
X4.9954Y-2.7464
X4.9954Y-2.7964
X5.0454Y-2.7464
X5.0454Y-2.7964
X5.0954Y-2.7464
X5.0954Y-2.7964
X5.1454Y-2.7464
X5.1454Y-2.7964
X5.1954Y-2.7464
X5.1954Y-2.7964
X5.2454Y-2.7464
X5.2454Y-2.7964
X5.2954Y-2.7464
X5.2954Y-2.7964
X5.9612Y-2.7464
X5.9612Y-2.7964
X6.0112Y-2.7464
X6.0112Y-2.7964
X6.0612Y-2.7464
X6.0612Y-2.7964
X6.1112Y-2.7464
X6.1112Y-2.7964
X6.1612Y-2.7464
X6.1612Y-2.7964
X6.2112Y-2.7464
X6.2112Y-2.7964
X6.2612Y-2.7464
X6.2612Y-2.7964
X6.3112Y-2.7464
X6.3112Y-2.7964
X6.3612Y-2.7464
X6.3612Y-2.7964
X6.4112Y-2.7464
X6.4112Y-2.7964
X6.4612Y-2.7464
X6.4612Y-2.7964
X6.5112Y-2.7464
X6.5112Y-2.7964
X6.5612Y-2.7464
X6.5612Y-2.7964
X6.6112Y-2.7464
X6.6112Y-2.7964
X6.6612Y-2.7464
X6.6612Y-2.7964
X6.7112Y-2.7464
X6.7112Y-2.7964
X6.7612Y-2.7464
X6.7612Y-2.7964
X6.8112Y-2.7464
X6.8112Y-2.7964
X6.8612Y-2.7464
X6.8612Y-2.7964
X6.9112Y-2.7464
X6.9112Y-2.7964
T6
X5.8071Y-5.8676
X6.0039Y-5.8676
T7
X5.2264Y-4.1535
X5.3248Y-4.1535
X5.4232Y-4.1535
X5.5217Y-4.1535
X5.6201Y-4.1535
X5.7185Y-4.1535
X5.8169Y-4.1535
X5.9154Y-4.1535
X6.0138Y-4.1535
X6.1122Y-4.1535
T8
X6.3472Y-3.0178
X6.7472Y-3.0178
T9
X4.4318Y-5.1173
X4.4318Y-5.4173
X4.8318Y-5.4173
X5.1318Y-5.1173
X5.1318Y-5.4173
X6.5718Y-5.1173
X6.5718Y-5.4173
X6.9718Y-5.4173
X7.2718Y-5.1173
X7.2718Y-5.4173
T10
X4.7316Y-5.8878
X4.8875Y-5.8878
X5.0435Y-5.8878
X5.2067Y-5.561
X5.2067Y-5.7169
X5.2982Y-5.1112
X5.4541Y-5.1112
X6.8717Y-5.8878
X7.0276Y-5.8878
X7.1835Y-5.8878
T11
X4.5264Y-3.9961
X7.3555Y-4.311
T12
X4.4519Y-2.7411
X4.4519Y-5.6466
X7.4047Y-2.7411
X7.4047Y-5.6466
T13
X4.8543Y-3.3661
X4.8543Y-4.311
X7.0276Y-3.9961
X7.0276Y-4.9409
T5
G00X5.7677Y-5.9877
M15
G01X5.7677Y-5.9601
M16
G05
G00X6.0433Y-5.9601
M15
G01X6.0433Y-5.9877
M16
G05
T0
M30
