%TF.GenerationSoftware,KiCad,Pcbnew,(6.0.2)*%
%TF.CreationDate,2023-01-13T18:58:57-08:00*%
%TF.ProjectId,ProvesXEPS,50726f76-6573-4584-9550-532e6b696361,rev?*%
%TF.SameCoordinates,Original*%
%TF.FileFunction,Soldermask,Top*%
%TF.FilePolarity,Negative*%
%FSLAX46Y46*%
G04 Gerber Fmt 4.6, Leading zero omitted, Abs format (unit mm)*
G04 Created by KiCad (PCBNEW (6.0.2)) date 2023-01-13 18:58:57*
%MOMM*%
%LPD*%
G01*
G04 APERTURE LIST*
G04 Aperture macros list*
%AMRoundRect*
0 Rectangle with rounded corners*
0 $1 Rounding radius*
0 $2 $3 $4 $5 $6 $7 $8 $9 X,Y pos of 4 corners*
0 Add a 4 corners polygon primitive as box body*
4,1,4,$2,$3,$4,$5,$6,$7,$8,$9,$2,$3,0*
0 Add four circle primitives for the rounded corners*
1,1,$1+$1,$2,$3*
1,1,$1+$1,$4,$5*
1,1,$1+$1,$6,$7*
1,1,$1+$1,$8,$9*
0 Add four rect primitives between the rounded corners*
20,1,$1+$1,$2,$3,$4,$5,0*
20,1,$1+$1,$4,$5,$6,$7,0*
20,1,$1+$1,$6,$7,$8,$9,0*
20,1,$1+$1,$8,$9,$2,$3,0*%
G04 Aperture macros list end*
%ADD10C,0.100000*%
%ADD11RoundRect,0.160000X-0.160000X0.197500X-0.160000X-0.197500X0.160000X-0.197500X0.160000X0.197500X0*%
%ADD12RoundRect,0.135000X-0.185000X0.135000X-0.185000X-0.135000X0.185000X-0.135000X0.185000X0.135000X0*%
%ADD13RoundRect,0.140000X-0.170000X0.140000X-0.170000X-0.140000X0.170000X-0.140000X0.170000X0.140000X0*%
%ADD14R,2.692400X0.939800*%
%ADD15R,2.692400X3.251200*%
%ADD16RoundRect,0.135000X0.185000X-0.135000X0.185000X0.135000X-0.185000X0.135000X-0.185000X-0.135000X0*%
%ADD17RoundRect,0.250001X-1.099999X1.099999X-1.099999X-1.099999X1.099999X-1.099999X1.099999X1.099999X0*%
%ADD18C,2.700000*%
%ADD19RoundRect,0.160000X-0.197500X-0.160000X0.197500X-0.160000X0.197500X0.160000X-0.197500X0.160000X0*%
%ADD20RoundRect,0.135000X0.135000X0.185000X-0.135000X0.185000X-0.135000X-0.185000X0.135000X-0.185000X0*%
%ADD21R,0.939800X2.692400*%
%ADD22R,3.251200X2.692400*%
%ADD23R,0.965200X3.505200*%
%ADD24R,10.668000X9.956800*%
%ADD25RoundRect,0.140000X0.140000X0.170000X-0.140000X0.170000X-0.140000X-0.170000X0.140000X-0.170000X0*%
%ADD26O,0.877000X1.627000*%
%ADD27RoundRect,0.160000X0.197500X0.160000X-0.197500X0.160000X-0.197500X-0.160000X0.197500X-0.160000X0*%
%ADD28C,2.006600*%
%ADD29RoundRect,0.225000X-0.225000X-0.250000X0.225000X-0.250000X0.225000X0.250000X-0.225000X0.250000X0*%
%ADD30R,1.676400X0.355600*%
%ADD31RoundRect,0.135000X-0.135000X-0.185000X0.135000X-0.185000X0.135000X0.185000X-0.135000X0.185000X0*%
%ADD32RoundRect,0.225000X0.250000X-0.225000X0.250000X0.225000X-0.250000X0.225000X-0.250000X-0.225000X0*%
%ADD33RoundRect,0.140000X0.170000X-0.140000X0.170000X0.140000X-0.170000X0.140000X-0.170000X-0.140000X0*%
%ADD34R,1.320800X0.558800*%
%ADD35RoundRect,0.250000X-0.600000X-0.725000X0.600000X-0.725000X0.600000X0.725000X-0.600000X0.725000X0*%
%ADD36O,1.700000X1.950000*%
%ADD37RoundRect,0.160000X0.160000X-0.197500X0.160000X0.197500X-0.160000X0.197500X-0.160000X-0.197500X0*%
%ADD38R,1.900000X0.950000*%
%ADD39R,1.900000X3.250000*%
%ADD40R,0.304800X1.270000*%
%ADD41R,2.460000X2.310000*%
%ADD42R,0.950000X1.900000*%
%ADD43R,3.250000X1.900000*%
%ADD44R,1.168400X0.533400*%
%ADD45R,1.498600X2.387600*%
%ADD46R,1.498600X1.244600*%
%ADD47R,2.200000X2.200000*%
%ADD48O,2.200000X2.200000*%
%ADD49C,5.000000*%
%ADD50RoundRect,0.147500X-0.147500X-0.172500X0.147500X-0.172500X0.147500X0.172500X-0.147500X0.172500X0*%
%ADD51RoundRect,0.250001X-1.099999X-1.099999X1.099999X-1.099999X1.099999X1.099999X-1.099999X1.099999X0*%
%ADD52R,0.533400X1.168400*%
%ADD53RoundRect,0.225000X0.225000X0.250000X-0.225000X0.250000X-0.225000X-0.250000X0.225000X-0.250000X0*%
%ADD54RoundRect,0.140000X-0.140000X-0.170000X0.140000X-0.170000X0.140000X0.170000X-0.140000X0.170000X0*%
%ADD55RoundRect,0.150000X0.587500X0.150000X-0.587500X0.150000X-0.587500X-0.150000X0.587500X-0.150000X0*%
%ADD56R,0.400000X1.350000*%
%ADD57C,1.450000*%
%ADD58O,1.200000X1.900000*%
%ADD59R,1.500000X1.900000*%
%ADD60R,1.200000X1.900000*%
%ADD61RoundRect,0.147500X-0.172500X0.147500X-0.172500X-0.147500X0.172500X-0.147500X0.172500X0.147500X0*%
%ADD62RoundRect,0.150000X-0.150000X0.650000X-0.150000X-0.650000X0.150000X-0.650000X0.150000X0.650000X0*%
%ADD63R,0.558800X1.320800*%
%ADD64R,0.500000X0.500000*%
%ADD65R,0.450000X0.700000*%
%ADD66R,1.499800X0.558800*%
%ADD67R,0.249200X0.804800*%
%ADD68R,0.804800X0.249200*%
%ADD69R,1.550000X1.550000*%
%ADD70R,1.524000X0.330200*%
%ADD71RoundRect,0.050000X0.387500X0.050000X-0.387500X0.050000X-0.387500X-0.050000X0.387500X-0.050000X0*%
%ADD72RoundRect,0.050000X0.050000X0.387500X-0.050000X0.387500X-0.050000X-0.387500X0.050000X-0.387500X0*%
%ADD73RoundRect,0.144000X1.456000X1.456000X-1.456000X1.456000X-1.456000X-1.456000X1.456000X-1.456000X0*%
%ADD74C,4.466000*%
%ADD75C,3.406000*%
G04 APERTURE END LIST*
D10*
%TO.C,IC1*%
X184788700Y-84097201D02*
X184888700Y-84097201D01*
X184888700Y-84097201D02*
X184888700Y-84447201D01*
X184888700Y-84447201D02*
X184788700Y-84447201D01*
X184788700Y-84447201D02*
X184788700Y-84097201D01*
G36*
X184888700Y-84447201D02*
G01*
X184788700Y-84447201D01*
X184788700Y-84097201D01*
X184888700Y-84097201D01*
X184888700Y-84447201D01*
G37*
X184888700Y-84447201D02*
X184788700Y-84447201D01*
X184788700Y-84097201D01*
X184888700Y-84097201D01*
X184888700Y-84447201D01*
X182328700Y-82997201D02*
X182228700Y-82997201D01*
X182228700Y-82997201D02*
X182228700Y-82647201D01*
X182228700Y-82647201D02*
X182328700Y-82647201D01*
X182328700Y-82647201D02*
X182328700Y-82997201D01*
G36*
X182328700Y-82997201D02*
G01*
X182228700Y-82997201D01*
X182228700Y-82647201D01*
X182328700Y-82647201D01*
X182328700Y-82997201D01*
G37*
X182328700Y-82997201D02*
X182228700Y-82997201D01*
X182228700Y-82647201D01*
X182328700Y-82647201D01*
X182328700Y-82997201D01*
X182328700Y-84097201D02*
X182228700Y-84097201D01*
X182228700Y-84097201D02*
X182228700Y-84447201D01*
X182228700Y-84447201D02*
X182328700Y-84447201D01*
X182328700Y-84447201D02*
X182328700Y-84097201D01*
G36*
X182328700Y-84447201D02*
G01*
X182228700Y-84447201D01*
X182228700Y-84097201D01*
X182328700Y-84097201D01*
X182328700Y-84447201D01*
G37*
X182328700Y-84447201D02*
X182228700Y-84447201D01*
X182228700Y-84097201D01*
X182328700Y-84097201D01*
X182328700Y-84447201D01*
X184788700Y-82997201D02*
X184888700Y-82997201D01*
X184888700Y-82997201D02*
X184888700Y-82647201D01*
X184888700Y-82647201D02*
X184788700Y-82647201D01*
X184788700Y-82647201D02*
X184788700Y-82997201D01*
G36*
X184888700Y-82997201D02*
G01*
X184788700Y-82997201D01*
X184788700Y-82647201D01*
X184888700Y-82647201D01*
X184888700Y-82997201D01*
G37*
X184888700Y-82997201D02*
X184788700Y-82997201D01*
X184788700Y-82647201D01*
X184888700Y-82647201D01*
X184888700Y-82997201D01*
%TD*%
D11*
%TO.C,R12*%
X150250000Y-107750001D03*
X150250000Y-108945001D03*
%TD*%
D12*
%TO.C,R25*%
X137000000Y-86490000D03*
X137000000Y-87510000D03*
%TD*%
D11*
%TO.C,R9*%
X145250000Y-107750001D03*
X145250000Y-108945001D03*
%TD*%
D13*
%TO.C,C7*%
X136144000Y-79770000D03*
X136144000Y-80730000D03*
%TD*%
D14*
%TO.C,Q12*%
X163917301Y-113612400D03*
X163917301Y-116000000D03*
X163917301Y-118387600D03*
D15*
X171384901Y-116000000D03*
%TD*%
D16*
%TO.C,R43*%
X152000000Y-135010000D03*
X152000000Y-133990000D03*
%TD*%
%TO.C,R5*%
X132250000Y-80760000D03*
X132250000Y-79740000D03*
%TD*%
D17*
%TO.C,J6*%
X132250000Y-141250000D03*
D18*
X132250000Y-145210000D03*
%TD*%
D19*
%TO.C,R42*%
X140500000Y-133750000D03*
X141695000Y-133750000D03*
%TD*%
D12*
%TO.C,R16*%
X183750000Y-90800001D03*
X183750000Y-91820001D03*
%TD*%
D20*
%TO.C,R32*%
X141010000Y-79250000D03*
X139990000Y-79250000D03*
%TD*%
D21*
%TO.C,Q7*%
X147612400Y-101207699D03*
X150000000Y-101207699D03*
X152387600Y-101207699D03*
D22*
X150000000Y-93740099D03*
%TD*%
D12*
%TO.C,R37*%
X175000002Y-143989999D03*
X175000002Y-145009999D03*
%TD*%
D23*
%TO.C,U3*%
X173949999Y-84250000D03*
X172250000Y-84250000D03*
X170549998Y-84250000D03*
X168849999Y-84250000D03*
X167150000Y-84250000D03*
D24*
X170549998Y-94054400D03*
%TD*%
D25*
%TO.C,C28*%
X148980000Y-133750000D03*
X148020000Y-133750000D03*
%TD*%
D14*
%TO.C,Q9*%
X138944000Y-88842400D03*
X138944000Y-91230000D03*
X138944000Y-93617600D03*
D15*
X146411600Y-91230000D03*
%TD*%
D12*
%TO.C,R22*%
X187250000Y-85540001D03*
X187250000Y-86560001D03*
%TD*%
D26*
%TO.C,J8*%
X125613854Y-71404591D03*
X125613854Y-69384591D03*
X126883854Y-71404591D03*
X126883854Y-69384591D03*
X128153854Y-71404591D03*
X128153854Y-69384591D03*
X129423854Y-71404591D03*
X129423854Y-69384591D03*
X130693854Y-71404591D03*
X130693854Y-69384591D03*
X131963854Y-71404591D03*
X131963854Y-69384591D03*
X133233854Y-71404591D03*
X133233854Y-69384591D03*
X134503854Y-71404591D03*
X134503854Y-69384591D03*
%TD*%
D13*
%TO.C,C29*%
X156150000Y-144545000D03*
X156150000Y-145505000D03*
%TD*%
D27*
%TO.C,R41*%
X141695000Y-132500000D03*
X140500000Y-132500000D03*
%TD*%
D28*
%TO.C,K2*%
X166922853Y-137599999D03*
X177082853Y-137599999D03*
X184702853Y-137599999D03*
X184702853Y-129979999D03*
X166922853Y-129979999D03*
%TD*%
D16*
%TO.C,R29*%
X185020000Y-76060001D03*
X185020000Y-75040001D03*
%TD*%
%TO.C,R3*%
X142876000Y-128750600D03*
X142876000Y-127730600D03*
%TD*%
%TO.C,R19*%
X131000000Y-83260000D03*
X131000000Y-82240000D03*
%TD*%
D13*
%TO.C,C21*%
X152000000Y-145020000D03*
X152000000Y-145980000D03*
%TD*%
D12*
%TO.C,R30*%
X111893700Y-125989999D03*
X111893700Y-127009999D03*
%TD*%
D29*
%TO.C,C12*%
X179500000Y-88550002D03*
X181050000Y-88550002D03*
%TD*%
D30*
%TO.C,U2*%
X155338852Y-82650001D03*
X155338852Y-83300002D03*
X155338852Y-83950000D03*
X155338852Y-84600002D03*
X155338852Y-85250000D03*
X155338852Y-85899999D03*
X155338852Y-86550000D03*
X155338852Y-87199999D03*
X155338852Y-87850000D03*
X155338852Y-88499999D03*
X160977652Y-88500001D03*
X160977652Y-87850003D03*
X160977652Y-87200002D03*
X160977652Y-86550003D03*
X160977652Y-85900002D03*
X160977652Y-85250003D03*
X160977652Y-84600002D03*
X160977652Y-83950003D03*
X160977652Y-83300002D03*
X160977652Y-82650003D03*
%TD*%
D31*
%TO.C,R36*%
X117690000Y-140990000D03*
X118710000Y-140990000D03*
%TD*%
D32*
%TO.C,C19*%
X168799998Y-80927000D03*
X168799998Y-79377000D03*
%TD*%
D33*
%TO.C,C34*%
X152000000Y-132480000D03*
X152000000Y-131520000D03*
%TD*%
D25*
%TO.C,C9*%
X144986000Y-131560600D03*
X144026000Y-131560600D03*
%TD*%
D32*
%TO.C,C20*%
X173949999Y-80891000D03*
X173949999Y-79341000D03*
%TD*%
D34*
%TO.C,Q19*%
X168976703Y-144047499D03*
X168976703Y-145952499D03*
X170856303Y-144999999D03*
%TD*%
D13*
%TO.C,C23*%
X148250000Y-145020000D03*
X148250000Y-145980000D03*
%TD*%
D35*
%TO.C,J1*%
X132750001Y-105500000D03*
D36*
X135250001Y-105500000D03*
X137750001Y-105500000D03*
X140250001Y-105500000D03*
X142750001Y-105500000D03*
X145250001Y-105500000D03*
X147750001Y-105500000D03*
X150250001Y-105500000D03*
X152750001Y-105500000D03*
X155250001Y-105500000D03*
%TD*%
D33*
%TO.C,C31*%
X144750000Y-143500000D03*
X144750000Y-142540000D03*
%TD*%
D12*
%TO.C,R31*%
X166250002Y-125989998D03*
X166250002Y-127009998D03*
%TD*%
D37*
%TO.C,R39*%
X150750000Y-146097500D03*
X150750000Y-144902500D03*
%TD*%
D12*
%TO.C,R38*%
X120643700Y-143990000D03*
X120643700Y-145010000D03*
%TD*%
D16*
%TO.C,R13*%
X137250000Y-78510000D03*
X137250000Y-77490000D03*
%TD*%
D21*
%TO.C,Q5*%
X155240001Y-101210001D03*
X157627601Y-101210001D03*
X160015201Y-101210001D03*
D22*
X157627601Y-93742401D03*
%TD*%
D11*
%TO.C,R14*%
X140250000Y-107750001D03*
X140250000Y-108945001D03*
%TD*%
D38*
%TO.C,Q2*%
X158710000Y-105509999D03*
X158710000Y-107809999D03*
X158710000Y-110109999D03*
D39*
X164810000Y-107809999D03*
%TD*%
D20*
%TO.C,R18*%
X184009999Y-88300001D03*
X182989999Y-88300001D03*
%TD*%
D14*
%TO.C,Q1*%
X135207700Y-116137599D03*
X135207700Y-113749999D03*
X135207700Y-111362399D03*
D15*
X127740100Y-113749999D03*
%TD*%
D29*
%TO.C,C26*%
X139975000Y-80750000D03*
X141525000Y-80750000D03*
%TD*%
D40*
%TO.C,IC1*%
X181608666Y-86519001D03*
X182258677Y-86519001D03*
X182908689Y-86519001D03*
X183558700Y-86519001D03*
X184208711Y-86519001D03*
X184858723Y-86519001D03*
X185508734Y-86519001D03*
X185508734Y-80575401D03*
X184858723Y-80575401D03*
X184208711Y-80575401D03*
X183558700Y-80575401D03*
X182908689Y-80575401D03*
X182258677Y-80575401D03*
X181608666Y-80575401D03*
D41*
X183558700Y-83547201D03*
%TD*%
D42*
%TO.C,Q3*%
X143300001Y-111450001D03*
X141000001Y-111450001D03*
X138700001Y-111450001D03*
D43*
X141000001Y-117550001D03*
%TD*%
D44*
%TO.C,Q13*%
X187984000Y-88100000D03*
X187984000Y-90000002D03*
X190016000Y-89050001D03*
%TD*%
D45*
%TO.C,D3*%
X109143700Y-134930900D03*
D46*
X109143700Y-132069100D03*
%TD*%
D25*
%TO.C,C15*%
X186250000Y-89550001D03*
X185290000Y-89550001D03*
%TD*%
D47*
%TO.C,D2*%
X171379998Y-76652000D03*
D48*
X161219998Y-76652000D03*
%TD*%
D49*
%TO.C,*%
X113078853Y-143424591D03*
%TD*%
D13*
%TO.C,C3*%
X153382852Y-86039001D03*
X153382852Y-86999001D03*
%TD*%
D50*
%TO.C,L2*%
X183765000Y-78800001D03*
X184735000Y-78800001D03*
%TD*%
D25*
%TO.C,C27*%
X148980000Y-135000000D03*
X148020000Y-135000000D03*
%TD*%
D51*
%TO.C,J2*%
X174540002Y-149549999D03*
D18*
X178500002Y-149549999D03*
X182460002Y-149549999D03*
%TD*%
D33*
%TO.C,C5*%
X152132852Y-86999001D03*
X152132852Y-86039001D03*
%TD*%
D31*
%TO.C,R23*%
X187239999Y-84300001D03*
X188259999Y-84300001D03*
%TD*%
D52*
%TO.C,Q18*%
X164450003Y-125984000D03*
X162550001Y-125984000D03*
X163500002Y-128016000D03*
%TD*%
D16*
%TO.C,R28*%
X134500000Y-87510000D03*
X134500000Y-86490000D03*
%TD*%
D26*
%TO.C,J7*%
X151413852Y-71404590D03*
X151413852Y-69384590D03*
X152683852Y-71404590D03*
X152683852Y-69384590D03*
X153953852Y-71404590D03*
X153953852Y-69384590D03*
X155223852Y-71404590D03*
X155223852Y-69384590D03*
X156493852Y-71404590D03*
X156493852Y-69384590D03*
X157763852Y-71404590D03*
X157763852Y-69384590D03*
X159033852Y-71404590D03*
X159033852Y-69384590D03*
X160303852Y-71404590D03*
X160303852Y-69384590D03*
X161573852Y-71404590D03*
X161573852Y-69384590D03*
X162843852Y-71404590D03*
X162843852Y-69384590D03*
X164113852Y-71404590D03*
X164113852Y-69384590D03*
X165383852Y-71404590D03*
X165383852Y-69384590D03*
X166653852Y-71404590D03*
X166653852Y-69384590D03*
X167923852Y-71404590D03*
X167923852Y-69384590D03*
X169193852Y-71404590D03*
X169193852Y-69384590D03*
X170463852Y-71404590D03*
X170463852Y-69384590D03*
X171733852Y-71404590D03*
X171733852Y-69384590D03*
X173003852Y-71404590D03*
X173003852Y-69384590D03*
X174273852Y-71404590D03*
X174273852Y-69384590D03*
X175543852Y-71404590D03*
X175543852Y-69384590D03*
%TD*%
D12*
%TO.C,R20*%
X138750000Y-82240000D03*
X138750000Y-83260000D03*
%TD*%
D16*
%TO.C,R15*%
X182500000Y-91810001D03*
X182500000Y-90790001D03*
%TD*%
D53*
%TO.C,C1*%
X130775000Y-80500000D03*
X129225000Y-80500000D03*
%TD*%
D20*
%TO.C,R2*%
X145004200Y-126172600D03*
X143984200Y-126172600D03*
%TD*%
D13*
%TO.C,C32*%
X146000000Y-139020000D03*
X146000000Y-139980000D03*
%TD*%
D54*
%TO.C,C4*%
X152152852Y-88269001D03*
X153112852Y-88269001D03*
%TD*%
D49*
%TO.C,*%
X188078854Y-69624589D03*
%TD*%
D55*
%TO.C,Q14*%
X143687500Y-84450000D03*
X143687500Y-82550000D03*
X141812500Y-83500000D03*
%TD*%
D31*
%TO.C,R27*%
X187240000Y-81300000D03*
X188260000Y-81300000D03*
%TD*%
D56*
%TO.C,J5*%
X148700000Y-149037500D03*
X149350000Y-149037500D03*
X150000000Y-149037500D03*
X150650000Y-149037500D03*
X151300000Y-149037500D03*
D57*
X147500000Y-149037500D03*
D58*
X146500000Y-151737500D03*
X153500000Y-151737500D03*
D59*
X149000000Y-151737500D03*
D60*
X147100000Y-151737500D03*
D57*
X152500000Y-149037500D03*
D59*
X151000000Y-151737500D03*
D60*
X152900000Y-151737500D03*
%TD*%
D54*
%TO.C,C16*%
X183020000Y-89550001D03*
X183980000Y-89550001D03*
%TD*%
D33*
%TO.C,C35*%
X143500000Y-143480000D03*
X143500000Y-142520000D03*
%TD*%
D12*
%TO.C,R4*%
X157382852Y-80009001D03*
X157382852Y-81029001D03*
%TD*%
D50*
%TO.C,L3*%
X166314998Y-80902000D03*
X167284998Y-80902000D03*
%TD*%
D32*
%TO.C,C17*%
X190000000Y-82825002D03*
X190000000Y-81275002D03*
%TD*%
D31*
%TO.C,R34*%
X117680000Y-139760000D03*
X118700000Y-139760000D03*
%TD*%
D52*
%TO.C,Q17*%
X110093701Y-125984000D03*
X108193699Y-125984000D03*
X109143700Y-128016000D03*
%TD*%
D61*
%TO.C,L1*%
X132250000Y-84464500D03*
X132250000Y-85434500D03*
%TD*%
D45*
%TO.C,D4*%
X163500002Y-134930899D03*
D46*
X163500002Y-132069099D03*
%TD*%
D51*
%TO.C,J4*%
X134575000Y-129825000D03*
D18*
X138535000Y-129825000D03*
%TD*%
D13*
%TO.C,C10*%
X133000000Y-86520000D03*
X133000000Y-87480000D03*
%TD*%
D12*
%TO.C,R17*%
X132250000Y-82240000D03*
X132250000Y-83260000D03*
%TD*%
D13*
%TO.C,C2*%
X133500000Y-79770000D03*
X133500000Y-80730000D03*
%TD*%
D49*
%TO.C,*%
X113078853Y-69624591D03*
%TD*%
D62*
%TO.C,U5*%
X141655000Y-135650000D03*
X140385000Y-135650000D03*
X139115000Y-135650000D03*
X137845000Y-135650000D03*
X137845000Y-142850000D03*
X139115000Y-142850000D03*
X140385000Y-142850000D03*
X141655000Y-142850000D03*
%TD*%
D42*
%TO.C,Q11*%
X168075001Y-110550000D03*
X170375001Y-110550000D03*
X172675001Y-110550000D03*
D43*
X170375001Y-104450000D03*
%TD*%
D63*
%TO.C,Q20*%
X118702500Y-142746700D03*
X116797500Y-142746700D03*
X117750000Y-144626300D03*
%TD*%
D53*
%TO.C,C11*%
X181250000Y-78550000D03*
X179700000Y-78550000D03*
%TD*%
D64*
%TO.C,D1*%
X160982852Y-80519001D03*
X158782852Y-80519001D03*
%TD*%
D31*
%TO.C,R24*%
X189490000Y-84300002D03*
X190510000Y-84300002D03*
%TD*%
D42*
%TO.C,Q10*%
X131200000Y-125300000D03*
X133500000Y-125300000D03*
X135800000Y-125300000D03*
D43*
X133500000Y-119200000D03*
%TD*%
D50*
%TO.C,L4*%
X171274998Y-80936000D03*
X172244998Y-80936000D03*
%TD*%
D65*
%TO.C,D5*%
X131400000Y-76250000D03*
X130100000Y-76250000D03*
X130750000Y-78250000D03*
%TD*%
D16*
%TO.C,R1*%
X150882852Y-87029001D03*
X150882852Y-86009001D03*
%TD*%
D31*
%TO.C,R8*%
X152372851Y-84769001D03*
X153392851Y-84769001D03*
%TD*%
D66*
%TO.C,Q22*%
X122687999Y-141345001D03*
X122687999Y-142615001D03*
X122687999Y-143885001D03*
X122687999Y-145155001D03*
X128099403Y-145155001D03*
X128099403Y-143885001D03*
X128099403Y-142615001D03*
X128099403Y-141345001D03*
%TD*%
D32*
%TO.C,C18*%
X164799998Y-80927000D03*
X164799998Y-79377000D03*
%TD*%
D11*
%TO.C,R10*%
X155250000Y-107750001D03*
X155250000Y-108945001D03*
%TD*%
D67*
%TO.C,IC2*%
X136000001Y-82168999D03*
X135500000Y-82168999D03*
X135000000Y-82168999D03*
X134499999Y-82168999D03*
D68*
X133797600Y-82871398D03*
X133797600Y-83371399D03*
X133797600Y-83871399D03*
X133797600Y-84371400D03*
D67*
X134499999Y-85073799D03*
X135000000Y-85073799D03*
X135500000Y-85073799D03*
X136000001Y-85073799D03*
D68*
X136702400Y-84371400D03*
X136702400Y-83871399D03*
X136702400Y-83371399D03*
X136702400Y-82871398D03*
D69*
X135250000Y-83621399D03*
%TD*%
D44*
%TO.C,Q21*%
X188036000Y-78385002D03*
X188036000Y-76485000D03*
X186004000Y-77435001D03*
%TD*%
D25*
%TO.C,C14*%
X183750000Y-77550001D03*
X182790000Y-77550001D03*
%TD*%
D54*
%TO.C,C30*%
X150040000Y-132750000D03*
X151000000Y-132750000D03*
%TD*%
D12*
%TO.C,R33*%
X167000002Y-146239999D03*
X167000002Y-147259999D03*
%TD*%
D70*
%TO.C,U1*%
X145000000Y-127749999D03*
X145000000Y-128250001D03*
X145000000Y-128750000D03*
X145000000Y-129249999D03*
X145000000Y-129750001D03*
X149343400Y-129750001D03*
X149343400Y-129249999D03*
X149343400Y-128750000D03*
X149343400Y-128250001D03*
X149343400Y-127749999D03*
%TD*%
D13*
%TO.C,C24*%
X157400000Y-138995000D03*
X157400000Y-139955000D03*
%TD*%
D20*
%TO.C,R26*%
X188259999Y-82800001D03*
X187239999Y-82800001D03*
%TD*%
D53*
%TO.C,C13*%
X181250000Y-76800001D03*
X179700000Y-76800001D03*
%TD*%
D44*
%TO.C,Q15*%
X191234000Y-85850000D03*
X191234000Y-87750002D03*
X193266000Y-86800001D03*
%TD*%
D66*
%TO.C,Q23*%
X177044301Y-141345000D03*
X177044301Y-142615000D03*
X177044301Y-143885000D03*
X177044301Y-145155000D03*
X182455705Y-145155000D03*
X182455705Y-143885000D03*
X182455705Y-142615000D03*
X182455705Y-141345000D03*
%TD*%
D51*
%TO.C,J3*%
X120183700Y-149550000D03*
D18*
X124143700Y-149550000D03*
X128103700Y-149550000D03*
%TD*%
D33*
%TO.C,C6*%
X162882502Y-86552501D03*
X162882502Y-85592501D03*
%TD*%
D52*
%TO.C,Q16*%
X190049999Y-78816001D03*
X191950001Y-78816001D03*
X191000000Y-76784001D03*
%TD*%
D28*
%TO.C,K1*%
X112566550Y-137599999D03*
X122726550Y-137599999D03*
X130346550Y-137599999D03*
X130346550Y-129979999D03*
X112566550Y-129979999D03*
%TD*%
D33*
%TO.C,C22*%
X150750000Y-134980000D03*
X150750000Y-134020000D03*
%TD*%
D38*
%TO.C,Q6*%
X132800000Y-101550000D03*
X132800000Y-99250000D03*
X132800000Y-96950000D03*
D39*
X126700000Y-99250000D03*
%TD*%
D12*
%TO.C,R7*%
X153382852Y-82509001D03*
X153382852Y-83529001D03*
%TD*%
%TO.C,R11*%
X136000000Y-77490000D03*
X136000000Y-78510000D03*
%TD*%
D37*
%TO.C,R40*%
X149500000Y-146097500D03*
X149500000Y-144902500D03*
%TD*%
D11*
%TO.C,R6*%
X135250000Y-107750001D03*
X135250000Y-108945001D03*
%TD*%
D14*
%TO.C,Q4*%
X143957700Y-101637601D03*
X143957700Y-99250001D03*
X143957700Y-96862401D03*
D15*
X136490100Y-99250001D03*
%TD*%
D42*
%TO.C,Q8*%
X151800000Y-111450000D03*
X149500000Y-111450000D03*
X147200000Y-111450000D03*
D43*
X149500000Y-117550000D03*
%TD*%
D12*
%TO.C,R21*%
X135750000Y-86490000D03*
X135750000Y-87510000D03*
%TD*%
D33*
%TO.C,C25*%
X146000000Y-143480000D03*
X146000000Y-142520000D03*
%TD*%
D16*
%TO.C,R35*%
X167000003Y-145010000D03*
X167000003Y-143990000D03*
%TD*%
D29*
%TO.C,C8*%
X179475000Y-90300001D03*
X181025000Y-90300001D03*
%TD*%
D49*
%TO.C,*%
X188078854Y-143424591D03*
%TD*%
D12*
%TO.C,R44*%
X140000000Y-82240000D03*
X140000000Y-83260000D03*
%TD*%
D71*
%TO.C,U4*%
X154437500Y-142600000D03*
X154437500Y-142200000D03*
X154437500Y-141800000D03*
X154437500Y-141400000D03*
X154437500Y-141000000D03*
X154437500Y-140600000D03*
X154437500Y-140200000D03*
X154437500Y-139800000D03*
X154437500Y-139400000D03*
X154437500Y-139000000D03*
X154437500Y-138600000D03*
X154437500Y-138200000D03*
X154437500Y-137800000D03*
X154437500Y-137400000D03*
D72*
X153600000Y-136562500D03*
X153200000Y-136562500D03*
X152800000Y-136562500D03*
X152400000Y-136562500D03*
X152000000Y-136562500D03*
X151600000Y-136562500D03*
X151200000Y-136562500D03*
X150800000Y-136562500D03*
X150400000Y-136562500D03*
X150000000Y-136562500D03*
X149600000Y-136562500D03*
X149200000Y-136562500D03*
X148800000Y-136562500D03*
X148400000Y-136562500D03*
D71*
X147562500Y-137400000D03*
X147562500Y-137800000D03*
X147562500Y-138200000D03*
X147562500Y-138600000D03*
X147562500Y-139000000D03*
X147562500Y-139400000D03*
X147562500Y-139800000D03*
X147562500Y-140200000D03*
X147562500Y-140600000D03*
X147562500Y-141000000D03*
X147562500Y-141400000D03*
X147562500Y-141800000D03*
X147562500Y-142200000D03*
X147562500Y-142600000D03*
D72*
X148400000Y-143437500D03*
X148800000Y-143437500D03*
X149200000Y-143437500D03*
X149600000Y-143437500D03*
X150000000Y-143437500D03*
X150400000Y-143437500D03*
X150800000Y-143437500D03*
X151200000Y-143437500D03*
X151600000Y-143437500D03*
X152000000Y-143437500D03*
X152400000Y-143437500D03*
X152800000Y-143437500D03*
X153200000Y-143437500D03*
X153600000Y-143437500D03*
D73*
X151000000Y-140000000D03*
%TD*%
D25*
%TO.C,C33*%
X156705000Y-119400000D03*
X155745000Y-119400000D03*
%TD*%
D74*
%TO.C,U14*%
X123300000Y-109500000D03*
X178500000Y-125500000D03*
D75*
X186830000Y-109500000D03*
%TD*%
D74*
%TO.C,U11*%
X178500000Y-101500000D03*
X123300000Y-85500000D03*
D75*
X114970000Y-101500000D03*
%TD*%
M02*
