%TF.GenerationSoftware,KiCad,Pcbnew,(6.0.2)*%
%TF.CreationDate,2023-01-13T18:58:57-08:00*%
%TF.ProjectId,ProvesXEPS,50726f76-6573-4584-9550-532e6b696361,rev?*%
%TF.SameCoordinates,Original*%
%TF.FileFunction,Soldermask,Bot*%
%TF.FilePolarity,Negative*%
%FSLAX46Y46*%
G04 Gerber Fmt 4.6, Leading zero omitted, Abs format (unit mm)*
G04 Created by KiCad (PCBNEW (6.0.2)) date 2023-01-13 18:58:57*
%MOMM*%
%LPD*%
G01*
G04 APERTURE LIST*
G04 Aperture macros list*
%AMRoundRect*
0 Rectangle with rounded corners*
0 $1 Rounding radius*
0 $2 $3 $4 $5 $6 $7 $8 $9 X,Y pos of 4 corners*
0 Add a 4 corners polygon primitive as box body*
4,1,4,$2,$3,$4,$5,$6,$7,$8,$9,$2,$3,0*
0 Add four circle primitives for the rounded corners*
1,1,$1+$1,$2,$3*
1,1,$1+$1,$4,$5*
1,1,$1+$1,$6,$7*
1,1,$1+$1,$8,$9*
0 Add four rect primitives between the rounded corners*
20,1,$1+$1,$2,$3,$4,$5,0*
20,1,$1+$1,$4,$5,$6,$7,0*
20,1,$1+$1,$6,$7,$8,$9,0*
20,1,$1+$1,$8,$9,$2,$3,0*%
G04 Aperture macros list end*
%ADD10RoundRect,0.250001X-1.099999X1.099999X-1.099999X-1.099999X1.099999X-1.099999X1.099999X1.099999X0*%
%ADD11C,2.700000*%
%ADD12O,0.877000X1.627000*%
%ADD13C,2.006600*%
%ADD14RoundRect,0.250000X-0.600000X-0.725000X0.600000X-0.725000X0.600000X0.725000X-0.600000X0.725000X0*%
%ADD15O,1.700000X1.950000*%
%ADD16R,2.200000X2.200000*%
%ADD17O,2.200000X2.200000*%
%ADD18C,5.000000*%
%ADD19RoundRect,0.250001X-1.099999X-1.099999X1.099999X-1.099999X1.099999X1.099999X-1.099999X1.099999X0*%
%ADD20C,1.450000*%
%ADD21O,1.200000X1.900000*%
%ADD22R,7.350000X6.350000*%
%ADD23C,4.466000*%
%ADD24C,3.406000*%
G04 APERTURE END LIST*
D10*
%TO.C,J6*%
X132250000Y-141250000D03*
D11*
X132250000Y-145210000D03*
%TD*%
D12*
%TO.C,J8*%
X125613854Y-71404591D03*
X125613854Y-69384591D03*
X126883854Y-71404591D03*
X126883854Y-69384591D03*
X128153854Y-71404591D03*
X128153854Y-69384591D03*
X129423854Y-71404591D03*
X129423854Y-69384591D03*
X130693854Y-71404591D03*
X130693854Y-69384591D03*
X131963854Y-71404591D03*
X131963854Y-69384591D03*
X133233854Y-71404591D03*
X133233854Y-69384591D03*
X134503854Y-71404591D03*
X134503854Y-69384591D03*
%TD*%
D13*
%TO.C,K2*%
X166922853Y-137599999D03*
X177082853Y-137599999D03*
X184702853Y-137599999D03*
X184702853Y-129979999D03*
X166922853Y-129979999D03*
%TD*%
D14*
%TO.C,J1*%
X132750001Y-105500000D03*
D15*
X135250001Y-105500000D03*
X137750001Y-105500000D03*
X140250001Y-105500000D03*
X142750001Y-105500000D03*
X145250001Y-105500000D03*
X147750001Y-105500000D03*
X150250001Y-105500000D03*
X152750001Y-105500000D03*
X155250001Y-105500000D03*
%TD*%
D16*
%TO.C,D2*%
X171379998Y-76652000D03*
D17*
X161219998Y-76652000D03*
%TD*%
D18*
%TO.C,*%
X113078853Y-143424591D03*
%TD*%
D19*
%TO.C,J2*%
X174540002Y-149549999D03*
D11*
X178500002Y-149549999D03*
X182460002Y-149549999D03*
%TD*%
D12*
%TO.C,J7*%
X151413852Y-71404590D03*
X151413852Y-69384590D03*
X152683852Y-71404590D03*
X152683852Y-69384590D03*
X153953852Y-71404590D03*
X153953852Y-69384590D03*
X155223852Y-71404590D03*
X155223852Y-69384590D03*
X156493852Y-71404590D03*
X156493852Y-69384590D03*
X157763852Y-71404590D03*
X157763852Y-69384590D03*
X159033852Y-71404590D03*
X159033852Y-69384590D03*
X160303852Y-71404590D03*
X160303852Y-69384590D03*
X161573852Y-71404590D03*
X161573852Y-69384590D03*
X162843852Y-71404590D03*
X162843852Y-69384590D03*
X164113852Y-71404590D03*
X164113852Y-69384590D03*
X165383852Y-71404590D03*
X165383852Y-69384590D03*
X166653852Y-71404590D03*
X166653852Y-69384590D03*
X167923852Y-71404590D03*
X167923852Y-69384590D03*
X169193852Y-71404590D03*
X169193852Y-69384590D03*
X170463852Y-71404590D03*
X170463852Y-69384590D03*
X171733852Y-71404590D03*
X171733852Y-69384590D03*
X173003852Y-71404590D03*
X173003852Y-69384590D03*
X174273852Y-71404590D03*
X174273852Y-69384590D03*
X175543852Y-71404590D03*
X175543852Y-69384590D03*
%TD*%
D18*
%TO.C,*%
X188078854Y-69624589D03*
%TD*%
D20*
%TO.C,J5*%
X147500000Y-149037500D03*
D21*
X146500000Y-151737500D03*
X153500000Y-151737500D03*
D20*
X152500000Y-149037500D03*
%TD*%
D19*
%TO.C,J4*%
X134575000Y-129825000D03*
D11*
X138535000Y-129825000D03*
%TD*%
D18*
%TO.C,*%
X113078853Y-69624591D03*
%TD*%
D19*
%TO.C,J3*%
X120183700Y-149550000D03*
D11*
X124143700Y-149550000D03*
X128103700Y-149550000D03*
%TD*%
D13*
%TO.C,K1*%
X112566550Y-137599999D03*
X122726550Y-137599999D03*
X130346550Y-137599999D03*
X130346550Y-129979999D03*
X112566550Y-129979999D03*
%TD*%
D18*
%TO.C,*%
X188078854Y-143424591D03*
%TD*%
D22*
%TO.C,U14*%
X111570000Y-117500000D03*
X190230000Y-117500000D03*
D23*
X123300000Y-109500000D03*
X178500000Y-125500000D03*
D24*
X186830000Y-109500000D03*
%TD*%
D22*
%TO.C,U11*%
X190230000Y-93500000D03*
X111570000Y-93500000D03*
D23*
X178500000Y-101500000D03*
X123300000Y-85500000D03*
D24*
X114970000Y-101500000D03*
%TD*%
M02*
